<mxfile host="app.diagrams.net" modified="2021-12-03T12:55:12.664Z" agent="5.0 (Windows NT 10.0; Win64; x64) AppleWebKit/537.36 (KHTML, like Gecko) Chrome/96.0.4664.45 Safari/537.36" etag="Lm2x1CT2P3tg-B8WAoay" version="15.8.9" type="github">
  <diagram id="J236loclDH0YOgX4yaI1" name="Page-1">
    <mxGraphModel dx="1422" dy="705" grid="1" gridSize="10" guides="1" tooltips="1" connect="1" arrows="1" fold="1" page="1" pageScale="1" pageWidth="850" pageHeight="1100" math="0" shadow="0">
      <root>
        <mxCell id="0" />
        <mxCell id="1" parent="0" />
        <mxCell id="LlA49Bdfjb7PK3bxKhA6-1" value="" style="rounded=0;whiteSpace=wrap;html=1;" vertex="1" parent="1">
          <mxGeometry x="240" y="80" width="360" height="200" as="geometry" />
        </mxCell>
        <mxCell id="LlA49Bdfjb7PK3bxKhA6-2" value="" style="rounded=0;whiteSpace=wrap;html=1;" vertex="1" parent="1">
          <mxGeometry x="250" y="90" width="340" height="180" as="geometry" />
        </mxCell>
        <mxCell id="LlA49Bdfjb7PK3bxKhA6-3" value="" style="endArrow=none;html=1;rounded=0;" edge="1" parent="1">
          <mxGeometry width="50" height="50" relative="1" as="geometry">
            <mxPoint x="590" y="120" as="sourcePoint" />
            <mxPoint x="250" y="120" as="targetPoint" />
          </mxGeometry>
        </mxCell>
        <mxCell id="LlA49Bdfjb7PK3bxKhA6-4" value="Padam" style="text;html=1;align=center;verticalAlign=middle;resizable=0;points=[];autosize=1;strokeColor=none;fillColor=none;fontSize=20;" vertex="1" parent="1">
          <mxGeometry x="380" y="90" width="80" height="30" as="geometry" />
        </mxCell>
        <mxCell id="LlA49Bdfjb7PK3bxKhA6-5" value="id" style="rounded=0;whiteSpace=wrap;html=1;fontSize=20;spacingLeft=10;align=left;fontColor=#B3B3B3;" vertex="1" parent="1">
          <mxGeometry x="270" y="140" width="300" height="40" as="geometry" />
        </mxCell>
        <mxCell id="LlA49Bdfjb7PK3bxKhA6-7" value="Padam" style="rounded=0;whiteSpace=wrap;html=1;fontSize=20;" vertex="1" parent="1">
          <mxGeometry x="360" y="210" width="120" height="40" as="geometry" />
        </mxCell>
      </root>
    </mxGraphModel>
  </diagram>
</mxfile>
